<svg version="1.1" id="Layer_1" xmlns="http://www.w3.org/2000/svg" xmlns:xlink="http://www.w3.org/1999/xlink" x="0px" y="0px"
	 width="100%" viewBox="57 135 388 232" enable-background="new 57 135 388 232" xml:space="preserve">
<path fill="#020202" opacity="1.000000" stroke="none" 
	d="
M135.423309,290.383972 
	C135.222244,292.157013 134.849457,293.929749 134.846222,295.703156 
	C134.806274,317.680511 134.820129,339.657990 134.820129,361.635437 
	C134.820129,363.432007 134.820129,365.228577 134.820129,367.319092 
	C108.857216,367.319092 83.287056,367.319092 57.352207,367.319092 
	C57.352207,341.704376 57.352207,316.037659 57.352207,289.918823 
	C83.140572,289.918823 108.899254,289.918823 135.063660,290.174957 
	C135.469360,290.431091 135.423309,290.383972 135.423309,290.383972 
z"/>
<path fill="#020202" opacity="1.000000" stroke="none" 
	d="
M290.364258,290.336945 
	C290.217560,292.805908 289.947449,295.274719 289.943604,297.743896 
	C289.910065,319.238007 289.924225,340.732239 289.924225,362.226410 
	C289.924225,363.852112 289.924225,365.477844 289.924225,367.357361 
	C263.907196,367.357361 238.310226,367.357361 211.965073,367.357361 
	C211.965073,341.967926 211.965073,316.566803 211.812134,290.761261 
	C211.659195,290.356812 211.589157,290.420380 211.589157,290.420380 
	C213.204071,290.267975 214.818726,289.985748 216.433914,289.982635 
	C240.827682,289.935608 265.221497,289.925293 290.014832,290.152710 
	C290.414307,290.399109 290.364258,290.336945 290.364258,290.336945 
z"/>
<path fill="#010101" opacity="1.000000" stroke="none" 
	d="
M445.290466,169.000153 
	C445.290466,183.634445 445.290466,197.768707 445.290466,212.257187 
	C419.463715,212.257187 393.941895,212.257187 368.161346,212.257187 
	C368.161346,186.667191 368.161346,161.109375 368.161346,135.257370 
	C393.655151,135.257370 419.195465,135.257370 445.290466,135.257370 
	C445.290466,146.339661 445.290466,157.419907 445.290466,169.000153 
z"/>
<path fill="#010101" opacity="1.000000" stroke="none" 
	d="
M135.497192,290.448730 
	C135.251816,289.392853 134.742188,288.319763 134.740173,287.245728 
	C134.695267,263.252930 134.703552,239.260025 134.718506,215.267151 
	C134.719009,214.463577 134.893936,213.660110 135.013840,212.631134 
	C160.586761,212.631134 186.014481,212.631134 212.069183,212.631134 
	C212.069183,238.286774 212.069183,263.867767 211.829163,289.934570 
	C211.589157,290.420380 211.659195,290.356812 211.677277,290.329926 
	C186.528381,290.218719 161.361404,290.134399 135.808868,290.217041 
	C135.423309,290.383972 135.469360,290.431091 135.497192,290.448730 
z"/>
<path fill="#010101" opacity="1.000000" stroke="none" 
	d="
M290.446106,290.423218 
	C290.253357,289.345978 289.834564,288.244904 289.832825,287.143219 
	C289.795258,263.321381 289.801147,239.499527 289.815552,215.677673 
	C289.816132,214.720184 289.982727,213.762787 290.090454,212.607132 
	C315.730774,212.607132 341.153046,212.607132 366.859802,212.607132 
	C366.859802,238.324921 366.859802,263.892670 366.859802,290.047455 
	C341.672607,290.047455 316.414978,290.047455 290.760803,290.192200 
	C290.364258,290.336945 290.414307,290.399109 290.446106,290.423218 
z"/>
<path fill="#010101" opacity="1.000000" stroke="none" 
	d="
M445.290466,302.007385 
	C445.290466,323.963470 445.290466,345.421448 445.290466,367.245850 
	C419.480499,367.245850 393.966675,367.245850 368.177490,367.245850 
	C368.177490,341.667480 368.177490,316.112549 368.177490,290.260376 
	C393.644684,290.260376 419.183838,290.260376 445.290466,290.260376 
	C445.290466,293.993011 445.290466,297.751160 445.290466,302.007385 
z"/>
</svg>